<?xml version="1.0" standalone="no"?>
<!DOCTYPE svg PUBLIC "-//W3C//DTD SVG 20010904//EN"
 "http://www.w3.org/TR/2001/REC-SVG-20010904/DTD/svg10.dtd">
<svg version="1.0" xmlns="http://www.w3.org/2000/svg"
 width="1000.000000pt" height="1000.000000pt" viewBox="0 0 1000.000000 1000.000000"
 preserveAspectRatio="xMidYMid meet">
<metadata>
Created by potrace 1.14, written by Peter Selinger 2001-2017
</metadata>
<g transform="translate(0.000000,1000.000000) scale(0.100000,-0.100000)"
fill="#000000" stroke="none">
<path d="M2718 8515 c-1 -1 -21 -5 -43 -8 -89 -13 -182 -58 -242 -117 -55 -55
-85 -120 -91 -200 -8 -109 47 -196 141 -221 143 -38 239 71 196 224 -6 22 -8
42 -5 45 15 14 173 13 229 -1 214 -56 387 -306 562 -812 21 -60 40 -112 41
-114 2 -2 47 25 101 58 81 51 197 111 472 244 23 11 25 17 27 117 3 190 29
302 86 381 42 58 63 76 123 103 49 23 78 30 182 41 l51 6 -14 -47 c-34 -115 3
-205 98 -237 73 -25 142 -6 192 53 34 41 41 69 40 155 -1 86 -26 146 -88 207
-80 81 -183 117 -348 123 -185 6 -315 -42 -454 -168 -109 -99 -239 -321 -211
-357 46 -58 50 -118 11 -149 -76 -60 -164 12 -151 122 7 55 -7 90 -74 187
-122 177 -298 295 -518 347 -57 13 -303 28 -313 18z"/>
<path d="M5928 8505 c-217 -38 -351 -200 -316 -384 23 -125 150 -192 258 -136
69 36 98 137 67 230 l-16 47 62 -7 c127 -14 184 -35 246 -91 87 -79 132 -213
133 -404 1 -57 -10 -265 -17 -322 -2 -18 -6 -67 -10 -108 -4 -41 -8 -86 -10
-100 -2 -14 -6 -50 -10 -80 -11 -91 -44 -287 -71 -420 -14 -69 -28 -135 -30
-147 -10 -57 -13 -71 -24 -118 -6 -27 -13 -57 -15 -65 -3 -17 -74 -327 -80
-350 -2 -8 -13 -55 -24 -105 -11 -49 -27 -115 -36 -145 -13 -49 -72 -291 -80
-330 -2 -8 -36 -143 -75 -300 -39 -157 -73 -296 -76 -310 -3 -14 -23 -97 -45
-184 -22 -88 -41 -169 -44 -180 -2 -12 -36 -149 -75 -306 -39 -157 -86 -350
-105 -430 -20 -80 -42 -170 -50 -200 -18 -66 -84 -336 -89 -366 -4 -21 -1 -21
77 -18 45 2 95 6 112 8 51 8 130 20 135 21 3 1 38 7 78 15 40 7 76 18 81 24 7
9 71 267 87 346 2 14 9 36 14 50 4 14 25 90 46 170 20 80 54 210 76 290 21 80
48 177 58 215 10 39 42 156 70 260 28 105 53 197 55 205 2 8 27 105 55 215 42
160 236 936 255 1020 16 72 79 302 152 555 47 162 100 351 119 420 35 127 99
339 114 375 4 11 27 74 50 140 50 141 151 353 211 445 65 98 182 211 259 248
36 18 76 35 90 38 44 10 134 14 173 7 37 -6 37 -6 30 -42 -15 -77 -8 -138 21
-175 33 -44 52 -54 111 -62 123 -17 236 102 219 229 -11 76 -39 132 -94 187
-99 99 -221 139 -415 135 -132 -3 -176 -10 -277 -41 -198 -63 -370 -205 -478
-396 -24 -44 -31 -68 -30 -100 5 -78 0 -96 -29 -127 -35 -38 -85 -42 -125 -10
-34 27 -35 77 -2 133 l24 41 -37 75 c-105 215 -247 348 -431 405 -68 21 -231
26 -322 10z"/>
<path d="M5288 7775 c-2 -2 -41 -6 -88 -9 -82 -7 -120 -11 -185 -21 -16 -3
-48 -7 -70 -10 -473 -69 -1039 -275 -1385 -504 -315 -208 -697 -592 -900 -903
-24 -38 -47 -68 -51 -68 -4 0 -20 7 -35 15 -131 68 -372 -93 -399 -267 -8 -47
11 -116 38 -146 l22 -24 -30 -21 c-48 -35 -105 -94 -199 -207 -112 -134 -215
-240 -286 -292 -30 -23 -59 -45 -63 -49 -5 -3 20 -27 55 -51 64 -46 181 -163
253 -253 22 -27 45 -55 50 -61 6 -6 35 -40 65 -76 51 -59 103 -107 140 -129
12 -7 13 -12 2 -26 -64 -91 -63 -192 3 -298 88 -140 250 -201 353 -133 34 23
41 25 46 11 4 -8 35 -59 70 -112 171 -256 403 -500 698 -736 115 -92 374 -250
543 -331 186 -89 480 -197 598 -219 32 -6 36 -5 33 11 -2 11 -7 44 -11 74 -11
88 -46 273 -55 290 -5 9 -44 31 -87 49 -176 76 -368 189 -523 309 -121 95
-314 291 -403 413 -42 57 -80 109 -85 114 -4 6 -19 28 -32 50 -146 236 -277
553 -320 773 l-13 62 -36 -39 c-42 -46 -74 -60 -135 -62 -89 -4 -171 74 -171
160 0 25 4 54 9 64 7 16 4 15 -28 -4 -88 -51 -231 19 -249 121 -7 37 18 100
50 131 55 50 151 62 207 26 l24 -16 -14 46 c-12 41 -12 50 5 89 36 79 145 124
234 95 20 -7 52 -30 71 -52 27 -29 36 -34 37 -22 1 25 3 35 33 148 188 712
713 1301 1402 1575 162 65 402 130 539 147 21 2 42 6 45 8 26 16 423 25 541
12 146 -15 406 -76 568 -132 41 -14 75 -24 77 -22 2 2 10 68 20 172 1 17 5 71
9 121 l7 92 -34 11 c-90 29 -305 72 -426 85 -20 3 -64 8 -97 11 -57 7 -432 15
-437 10z"/>
<path d="M7016 7183 c-24 -76 -55 -175 -69 -220 l-25 -82 21 -14 c34 -22 138
-126 183 -182 188 -236 213 -459 74 -674 l-40 -61 38 -25 c141 -93 434 -23
506 121 l21 41 30 -30 c49 -50 196 -105 327 -121 24 -3 59 -8 78 -10 19 -3 70
-7 114 -11 l79 -6 -6 68 c-16 168 -92 369 -189 494 -15 20 -28 41 -28 46 0 5
16 17 35 26 60 29 120 93 150 160 24 52 29 76 29 147 1 99 -17 165 -43 156
-143 -47 -192 -58 -279 -58 -201 0 -401 75 -868 328 -45 24 -84 44 -87 44 -3
0 -26 -62 -51 -137z"/>
<path d="M4100 6973 c-147 -106 -390 -310 -390 -328 0 -2 11 -46 26 -97 14
-51 27 -104 30 -117 3 -14 7 -28 10 -33 3 -4 7 -16 9 -25 2 -10 13 -54 24 -98
12 -44 23 -87 25 -95 5 -20 93 -358 116 -445 10 -38 37 -142 60 -230 40 -155
90 -344 110 -415 14 -49 100 -371 105 -391 2 -9 22 -86 45 -170 23 -85 43
-161 45 -169 2 -8 20 -78 40 -155 21 -77 39 -147 40 -155 2 -8 20 -78 40 -155
21 -77 38 -147 40 -156 2 -9 15 -65 30 -125 14 -60 28 -116 30 -124 10 -44 85
-420 90 -450 3 -19 10 -58 16 -86 19 -97 35 -261 32 -332 -3 -79 -40 -206 -76
-256 -63 -90 -133 -127 -247 -131 -53 -2 -60 -16 -34 -70 33 -70 144 -131 251
-138 98 -7 205 31 275 97 31 30 34 31 35 14 4 -88 67 -214 238 -473 120 -182
124 -186 138 -163 8 13 53 84 99 158 165 263 206 342 223 430 12 64 14 65 54
28 49 -47 78 -63 141 -82 168 -50 373 34 405 167 7 26 6 27 -31 27 -167 2
-250 69 -309 248 -18 57 -23 83 -26 154 l-2 47 -56 -5 c-31 -3 -92 -9 -136
-13 -66 -6 -302 -8 -381 -2 -19 1 -25 15 -49 109 -15 59 -29 116 -31 128 -2
11 -15 65 -29 120 -26 102 -73 300 -81 344 -3 14 -16 72 -30 130 -14 58 -27
112 -29 120 -2 8 -11 47 -20 85 -9 39 -18 77 -20 85 -10 47 -57 240 -65 270
-9 31 -76 299 -85 340 -5 20 -143 565 -201 790 -25 96 -48 186 -50 200 -3 14
-19 79 -35 145 -17 66 -32 127 -34 135 -2 8 -18 73 -35 144 -18 71 -33 137
-35 145 -2 9 -27 117 -55 241 -29 124 -54 236 -56 250 -3 14 -11 53 -19 88 -8
34 -17 75 -20 91 -2 15 -18 93 -34 172 -16 79 -33 163 -36 187 -4 23 -10 42
-13 42 -4 0 -36 -22 -72 -47z"/>
<path d="M7250 4614 c-25 -9 -55 -24 -67 -34 l-22 -17 25 -34 c31 -41 77 -131
92 -179 66 -208 -7 -431 -202 -625 -109 -108 -152 -141 -292 -227 -152 -94
-423 -214 -574 -254 -8 -2 -64 -18 -125 -34 -120 -33 -113 -31 -235 -54 -119
-22 -138 -25 -200 -32 -30 -3 -64 -8 -74 -10 -34 -6 -239 -18 -312 -18 l-71 0
43 -169 c24 -93 47 -173 50 -178 11 -19 326 2 549 36 221 35 611 147 800 230
17 7 66 29 110 48 128 55 215 97 463 221 314 156 522 244 625 262 18 3 49 9
70 14 96 21 281 4 374 -35 29 -12 34 -12 42 3 33 65 43 180 22 252 -23 75
-104 163 -190 206 l-31 16 45 51 c59 67 130 210 155 312 24 98 39 224 28 231
-7 5 -97 -1 -173 -11 -16 -2 -57 -7 -89 -10 -139 -15 -323 -82 -347 -126 -10
-19 -12 -18 -38 23 -32 50 -99 98 -180 129 -76 29 -210 35 -271 13z"/>
</g>
</svg>
